# xmcd
#
# Track frame offsets: 
#        150
#        14829
#        30878
#        50394
#        64333
#        84876
#        99778
#        114150
#        128371
#        143128
#        157271
#
# Disc length: 2309 seconds
#
# Revision: 0
# Processed by: cddbd v1.5.2PL0 Copyright (c) Steve Scherf et al.
# Submitted via: ExactAudioCopyFreeDBPlugin 1.0
#
DISCID=7f09030b
DTITLE=All The Rage In Dallas - All The Rage In Dallas
DYEAR=1998
DGENRE=Country
TTITLE0=Cadillac Dreams
TTITLE1=Circle Of Love
TTITLE2=Somewhere Somebody's Cryin'
TTITLE3=The New Law
TTITLE4=You Crossed That Line
TTITLE5=Cheyanne
TTITLE6=Lonely Man
TTITLE7=Baby
TTITLE8=Daddy Don't Go
TTITLE9=Heartache and Pain
TTITLE10=Poor Single Mother
EXTD=
EXTT0=
EXTT1=
EXTT2=
EXTT3=
EXTT4=
EXTT5=
EXTT6=
EXTT7=
EXTT8=
EXTT9=
EXTT10=
PLAYORDER=
